<?xml version="1.0" standalone="no"?>
<!DOCTYPE svg PUBLIC "-//W3C//DTD SVG 20010904//EN"
 "http://www.w3.org/TR/2001/REC-SVG-20010904/DTD/svg10.dtd">
<svg version="1.0" xmlns="http://www.w3.org/2000/svg"
 width="538.000000pt" height="538.000000pt" viewBox="0 0 538.000000 538.000000"
 preserveAspectRatio="xMidYMid meet">
<metadata>
Created by potrace 1.14, written by Peter Selinger 2001-2017
</metadata>
<g transform="translate(0.000000,538.000000) scale(0.100000,-0.100000)"
fill="#000000" stroke="none">
<path d="M5070 5303 c0 -4 -12 -9 -27 -9 -29 -1 -87 -9 -144 -18 -19 -4 -52
-9 -74 -12 -22 -3 -51 -7 -65 -8 -14 -2 -47 -7 -75 -10 -27 -4 -57 -8 -65 -11
-8 -2 -40 -6 -70 -10 -30 -3 -68 -8 -85 -11 -16 -3 -43 -7 -60 -9 -16 -2 -50
-7 -75 -10 -25 -4 -58 -8 -75 -10 -16 -1 -30 -4 -30 -5 0 -1 -11 -3 -25 -5
-38 -4 -112 -14 -140 -19 -14 -3 -45 -7 -70 -11 -25 -3 -61 -9 -80 -11 -19 -3
-42 -6 -50 -6 -8 0 -33 -4 -55 -8 -36 -8 -99 -16 -180 -25 -16 -2 -31 -4 -32
-5 -2 -2 -7 -4 -13 -5 -5 -1 -11 -3 -12 -5 -2 -1 -11 -3 -21 -5 -10 -2 -28
-12 -40 -22 -14 -12 -18 -13 -13 -3 5 8 -7 -3 -25 -25 -19 -21 -44 -50 -56
-63 -13 -12 -23 -25 -23 -27 0 -3 -14 -18 -31 -35 -18 -16 -29 -30 -25 -30 4
0 -5 -13 -21 -30 -38 -40 -49 -54 -50 -63 -1 -5 -15 -22 -32 -38 -17 -16 -31
-32 -31 -35 0 -3 -11 -15 -25 -28 -14 -13 -25 -26 -25 -29 0 -3 -12 -19 -27
-36 -59 -64 -82 -91 -78 -91 3 0 -3 -9 -12 -19 -9 -11 -21 -17 -26 -14 -6 3
-7 1 -4 -4 4 -6 -2 -18 -13 -28 -11 -10 -17 -21 -15 -26 3 -4 -3 -10 -14 -14
-10 -3 -21 -15 -24 -26 -3 -12 -10 -18 -16 -14 -7 4 -8 0 -4 -11 4 -12 3 -15
-5 -10 -7 4 -12 3 -12 -3 0 -10 -23 -39 -82 -102 -20 -21 -33 -39 -30 -39 4
-1 -2 -8 -13 -18 -12 -9 -24 -25 -28 -35 -4 -11 -12 -15 -18 -11 -7 4 -9 3 -5
-4 3 -6 -1 -15 -10 -20 -9 -5 -14 -11 -13 -13 6 -9 -35 -48 -44 -42 -6 3 -7 1
-3 -5 3 -6 -5 -22 -19 -36 -14 -14 -25 -28 -25 -32 0 -6 -17 -26 -71 -82 -14
-15 -28 -35 -32 -44 -3 -10 -11 -18 -17 -18 -5 0 -10 -7 -10 -16 0 -8 -4 -12
-10 -9 -5 3 -10 2 -10 -3 0 -5 -9 -20 -21 -33 -11 -13 -29 -34 -40 -47 -10
-12 -19 -27 -19 -33 0 -5 -4 -7 -10 -4 -5 3 -10 -1 -10 -10 0 -10 -5 -13 -12
-9 -6 4 -8 3 -4 -4 3 -6 -5 -19 -19 -31 -15 -11 -26 -22 -26 -25 2 -20 0 -26
-8 -24 -5 2 -23 -16 -40 -39 -17 -24 -36 -43 -42 -43 -5 0 -8 -4 -4 -9 3 -6
-4 -15 -16 -21 -11 -7 -18 -14 -15 -17 8 -8 -18 -31 -29 -25 -5 3 -7 2 -3 -2
7 -9 -81 -122 -150 -192 -13 -13 -20 -24 -17 -24 3 0 -4 -10 -17 -23 -13 -13
-39 -44 -58 -70 -19 -26 -43 -49 -53 -52 -9 -4 -15 -11 -11 -16 3 -5 -9 -23
-26 -39 -18 -17 -29 -30 -26 -30 4 0 -7 -13 -24 -30 -16 -16 -30 -33 -30 -37
0 -4 -12 -18 -27 -31 -16 -13 -21 -20 -13 -16 8 3 0 -7 -18 -25 -18 -17 -30
-31 -27 -31 4 0 -9 -16 -29 -35 -20 -19 -36 -38 -36 -43 0 -4 -8 -15 -17 -23
-10 -9 -26 -26 -35 -38 -18 -21 -78 -31 -78 -12 0 5 -48 7 -107 6 -60 -1 -108
-3 -108 -4 0 -2 -7 -4 -48 -14 -6 -2 -21 -8 -32 -14 -11 -6 -28 -9 -37 -8 -10
2 -16 -2 -15 -8 1 -7 -4 -11 -10 -10 -7 2 -13 -1 -13 -6 0 -5 -8 -12 -17 -15
-10 -3 -42 -29 -71 -56 -30 -28 -58 -50 -63 -50 -5 0 -8 -6 -6 -12 1 -7 -4
-12 -11 -10 -8 1 -11 -1 -8 -6 6 -11 -75 -88 -89 -83 -5 1 -7 -1 -3 -4 4 -4
-7 -21 -23 -36 -17 -16 -28 -29 -24 -29 4 0 -3 -9 -16 -21 -13 -11 -18 -17
-10 -14 9 5 8 -1 -4 -19 -10 -14 -14 -26 -10 -26 4 0 3 -6 -1 -12 -17 -24 -4
-102 23 -144 7 -11 10 -24 6 -27 -3 -4 0 -7 8 -7 16 0 55 -40 51 -52 -1 -5 2
-8 7 -8 12 0 127 -110 115 -110 -5 -1 4 -8 19 -16 15 -8 25 -19 22 -24 -4 -6
-1 -10 4 -10 6 0 24 -14 41 -32 l30 -31 -22 -25 c-71 -78 -364 -366 -370 -364
-5 1 -8 -5 -8 -13 0 -20 -31 -31 -112 -39 -36 -3 -75 -9 -85 -12 -62 -20 -154
-65 -175 -87 -10 -9 -23 -17 -29 -17 -5 0 -7 -5 -3 -12 5 -8 2 -9 -12 -4 -10
4 -15 4 -12 1 4 -4 -13 -31 -38 -61 -24 -30 -47 -66 -50 -79 -3 -14 -10 -25
-15 -25 -5 0 -8 -3 -7 -8 1 -4 -4 -27 -11 -51 -7 -25 -14 -54 -15 -66 -1 -11
-6 -26 -10 -33 -4 -7 -3 -12 3 -12 6 0 8 -7 4 -16 -7 -19 -10 -304 -3 -304 3
0 6 -8 7 -17 2 -50 15 -100 36 -146 13 -29 25 -56 28 -62 8 -19 129 -149 129
-138 0 3 8 -1 18 -9 9 -8 25 -18 35 -21 10 -4 16 -11 13 -16 -3 -5 4 -7 16 -3
12 3 19 1 15 -4 -3 -6 2 -11 11 -12 21 -2 57 -10 57 -12 0 -4 43 -11 83 -14
24 -2 45 -6 47 -8 5 -5 252 0 313 6 29 3 61 9 70 14 9 5 24 8 32 7 8 0 21 5
28 12 7 7 22 13 32 13 10 0 21 7 24 16 3 8 10 13 15 10 5 -3 23 8 41 24 18 17
36 30 41 30 5 0 9 4 9 8 0 5 18 27 40 50 21 23 37 42 34 42 -3 0 3 15 14 33
28 49 51 124 57 192 3 33 9 69 12 80 6 22 329 345 344 345 5 0 8 4 6 8 -2 7
67 82 76 82 10 0 172 -164 170 -172 -2 -4 1 -8 6 -8 5 0 36 -26 68 -58 33 -32
75 -65 94 -75 52 -24 118 -27 160 -6 20 10 40 15 44 11 5 -4 5 -1 1 6 -4 6 -2
12 4 12 5 0 49 39 97 88 48 48 91 86 95 85 4 -2 8 2 8 8 0 6 18 28 39 49 22
22 42 48 46 60 3 11 10 20 15 20 5 0 14 16 21 34 7 19 16 33 20 30 5 -2 6 5 4
16 -2 11 2 25 8 32 7 7 14 24 17 38 7 38 3 211 -5 249 -6 27 -4 37 11 48 10 7
14 13 9 13 -5 0 9 13 31 29 21 16 43 27 48 24 5 -4 6 -2 3 4 -3 5 3 17 14 26
10 9 19 14 19 11 0 -3 16 13 37 35 20 23 42 41 49 41 6 0 15 7 18 16 3 8 10
12 16 9 5 -3 10 2 10 11 0 10 3 15 6 12 3 -4 14 1 23 10 51 48 91 81 91 75 0
-3 9 6 21 21 11 14 24 26 29 26 7 0 38 25 98 78 14 12 29 22 34 22 5 0 6 5 3
10 -3 6 4 10 16 10 12 0 19 3 16 7 -4 3 9 17 28 30 19 13 35 29 35 35 0 6 3 9
6 6 6 -6 31 14 104 83 21 21 40 35 42 33 2 -2 25 17 51 41 26 24 47 41 47 38
0 -3 8 4 19 15 10 12 21 22 24 22 4 0 20 12 36 27 66 61 101 88 112 85 6 -1 8
2 5 7 -8 12 34 42 47 34 6 -3 7 -1 4 4 -7 11 42 49 56 45 5 -1 6 2 3 7 -3 5
11 21 32 37 20 15 40 32 43 37 4 5 12 6 19 2 8 -5 11 -4 7 2 -8 12 60 70 75
65 5 -1 7 2 4 7 -3 5 7 17 22 26 15 10 37 31 50 46 13 16 28 29 33 29 8 0 42
26 75 58 7 6 17 12 23 12 6 0 10 6 9 13 -2 6 5 11 14 11 10 -1 20 7 23 17 4
11 10 19 15 19 5 0 21 11 36 25 15 14 41 36 57 48 17 12 45 36 63 53 18 18 35
29 38 26 3 -3 6 0 6 6 0 7 8 12 17 12 9 0 13 3 10 7 -4 3 11 19 33 35 22 17
40 34 40 39 0 5 3 8 8 7 8 -3 27 11 78 60 19 17 37 32 41 32 3 0 14 10 24 22
11 11 19 18 19 15 0 -4 15 7 33 24 17 16 44 41 59 54 15 14 32 25 37 25 6 0
11 5 11 11 0 5 5 7 12 3 7 -4 8 -3 4 5 -4 7 5 18 23 29 17 9 31 21 31 25 0 5
5 5 10 2 6 -4 10 -3 9 2 -4 17 14 43 25 36 6 -3 8 -3 4 2 -4 4 -2 17 4 29 6
11 13 30 14 41 2 11 6 38 9 60 3 22 8 55 11 73 5 38 13 97 18 132 9 62 17 117
21 145 2 17 4 30 5 30 1 0 3 14 5 30 6 54 15 129 20 155 9 45 17 104 20 140 2
19 4 35 5 35 1 0 3 16 5 35 3 19 7 50 11 69 3 19 7 53 10 75 2 23 6 50 9 61 2
11 7 43 10 70 4 28 8 61 11 75 2 14 6 45 10 70 3 25 7 56 10 70 17 91 24 236
14 270 -3 8 -11 21 -18 28 -7 8 -10 18 -7 23 4 5 0 9 -8 9 -8 0 -22 12 -32 26
-9 14 -23 23 -30 20 -8 -3 -15 -1 -17 5 -2 5 -22 11 -46 14 -23 2 -47 7 -52
10 -6 3 -10 3 -10 -2z m-215 -478 c0 -16 -2 -34 -4 -40 -6 -11 -6 -13 -16
-110 -4 -38 -8 -72 -10 -75 -3 -4 -12 -69 -20 -140 -3 -26 -11 -80 -21 -138
-3 -17 -7 -49 -10 -70 -3 -20 -7 -50 -9 -67 -3 -16 -7 -48 -9 -70 -3 -22 -7
-53 -10 -70 -12 -70 -16 -92 -21 -135 -3 -25 -7 -58 -10 -75 -2 -16 -7 -47 -9
-69 -4 -25 -15 -48 -36 -67 -16 -16 -32 -29 -35 -29 -2 0 -18 -12 -34 -27 -38
-35 -54 -49 -115 -97 -76 -60 -86 -69 -117 -98 -16 -15 -29 -25 -29 -22 0 3
-10 -5 -23 -18 -13 -13 -38 -34 -57 -48 -18 -14 -45 -37 -60 -52 -16 -15 -31
-24 -34 -21 -3 4 -6 -1 -6 -11 0 -9 -4 -14 -10 -11 -5 3 -10 1 -10 -5 0 -6 -4
-8 -10 -5 -5 3 -10 -1 -10 -9 0 -9 -4 -16 -9 -16 -10 0 -40 -25 -97 -78 -20
-18 -40 -30 -47 -26 -7 4 -9 3 -4 -1 8 -10 -21 -45 -37 -45 -7 0 -18 -9 -26
-20 -8 -11 -19 -20 -26 -20 -6 0 -21 -13 -34 -30 -13 -16 -29 -30 -36 -30 -8
0 -14 -5 -14 -10 0 -6 -8 -14 -17 -17 -9 -4 -32 -22 -50 -41 -18 -18 -33 -30
-33 -26 0 4 -9 -2 -20 -14 -12 -12 -25 -22 -31 -22 -6 0 -7 -4 -4 -10 3 -5 -1
-10 -9 -10 -9 0 -16 -4 -16 -10 0 -5 -7 -10 -16 -10 -8 0 -13 -4 -9 -9 3 -5
-3 -12 -14 -16 -11 -3 -22 -13 -25 -21 -3 -8 -10 -13 -15 -10 -5 3 -12 -1 -15
-10 -3 -8 -11 -12 -17 -8 -7 4 -9 3 -5 -4 8 -13 -33 -44 -47 -35 -6 3 -7 1 -4
-4 4 -6 -3 -18 -16 -26 -12 -8 -36 -28 -53 -44 -17 -15 -43 -37 -58 -47 -15
-11 -37 -29 -50 -40 -85 -78 -120 -105 -130 -99 -6 3 -8 3 -4 -1 8 -9 -14 -36
-24 -30 -4 3 -12 -5 -18 -16 -6 -11 -15 -18 -21 -15 -5 4 -9 -1 -9 -9 0 -9 -7
-16 -15 -16 -8 0 -15 -4 -15 -9 0 -5 -9 -13 -20 -16 -11 -4 -18 -10 -15 -15 3
-5 -6 -12 -20 -16 -13 -3 -23 -9 -21 -13 2 -3 -2 -12 -10 -19 -8 -7 -14 -10
-14 -7 0 3 -16 -10 -35 -29 -19 -20 -35 -32 -35 -28 0 4 -5 -1 -11 -10 -5 -10
-15 -18 -21 -18 -6 0 -21 -10 -33 -23 -32 -32 -102 -91 -164 -137 -29 -22 -49
-40 -45 -40 5 0 -6 -10 -23 -21 -18 -12 -33 -26 -33 -31 0 -6 -7 -7 -16 -4 -8
3 -13 2 -11 -2 2 -4 -4 -15 -15 -24 -10 -10 -18 -16 -18 -13 0 2 -12 -8 -26
-22 -21 -21 -28 -23 -35 -12 -5 8 -9 10 -9 6 0 -11 -110 104 -110 115 0 5 -5
6 -11 2 -7 -4 -9 1 -7 12 2 11 10 18 16 17 7 -2 11 1 9 5 -1 4 26 36 61 71 34
35 62 67 62 73 0 5 4 7 9 4 5 -3 12 1 15 10 3 8 11 12 17 8 8 -4 9 -3 5 5 -4
6 -1 14 8 17 8 3 18 14 21 25 4 11 10 17 15 14 4 -3 11 2 14 11 3 8 10 12 16
9 6 -4 7 1 3 12 -3 10 -3 15 1 11 8 -7 116 99 116 114 0 5 4 7 9 4 5 -3 12 1
15 10 3 8 10 12 16 9 6 -4 7 1 3 11 -4 12 -3 15 5 10 7 -4 12 -2 12 4 0 6 5 8
12 4 7 -4 8 -3 4 5 -4 6 0 14 8 17 9 3 13 10 10 15 -3 5 -1 9 4 9 6 0 37 27
70 59 33 33 63 57 67 53 5 -4 5 -1 1 6 -4 7 -1 15 8 18 9 3 13 10 10 15 -3 5
-1 9 5 9 12 0 301 289 301 301 0 6 4 8 9 5 5 -3 12 1 15 10 3 8 11 12 17 8 8
-4 9 -3 5 4 -4 7 -2 12 4 12 6 0 8 5 4 12 -5 8 -2 9 10 5 10 -4 15 -3 11 3 -3
6 1 13 9 16 9 3 13 10 10 15 -3 5 -1 9 4 9 6 0 40 30 76 66 36 36 66 70 66 76
0 5 4 7 9 4 5 -3 12 1 15 10 3 8 10 12 16 9 6 -4 7 1 3 12 -3 10 -3 15 1 11 8
-7 196 178 196 194 0 5 4 7 9 4 5 -3 12 1 15 10 3 8 11 12 17 8 8 -4 9 -3 5 5
-4 6 -1 14 8 17 8 3 18 14 21 25 4 11 10 17 15 14 4 -3 11 2 14 11 3 8 10 12
16 9 6 -4 7 1 3 12 -3 10 -3 15 1 11 9 -8 76 58 76 75 0 5 3 8 6 5 13 -14 101
93 111 134 8 36 9 137 1 131 -5 -2 -8 5 -8 16 0 12 -5 21 -10 21 -6 0 -14 8
-17 18 -22 57 -145 95 -225 69 -16 -5 -28 -13 -28 -18 0 -4 -7 -5 -17 -2 -11
4 -14 3 -9 -5 4 -7 3 -12 -1 -12 -5 0 -20 -11 -35 -24 -14 -14 -29 -22 -32
-18 -4 3 -4 -2 0 -11 3 -10 3 -17 -2 -15 -5 1 -34 -23 -65 -54 -31 -31 -60
-54 -65 -50 -4 4 -4 2 -1 -4 8 -14 -16 -37 -27 -27 -4 4 -4 -1 0 -10 3 -10 3
-17 -2 -15 -5 1 -52 -41 -105 -94 -54 -53 -100 -94 -104 -90 -4 4 -5 2 -3 -4
4 -14 -97 -116 -106 -107 -4 4 -4 -1 0 -10 3 -10 3 -17 -2 -15 -5 1 -52 -41
-105 -94 -54 -53 -100 -94 -104 -90 -4 4 -5 2 -3 -4 4 -14 -148 -165 -157
-156 -4 4 -5 2 -3 -4 4 -14 -97 -116 -106 -107 -4 4 -4 -1 0 -10 3 -10 3 -17
-2 -15 -5 1 -52 -41 -105 -94 -54 -53 -100 -94 -104 -90 -4 4 -5 2 -3 -4 4
-14 -97 -116 -106 -107 -4 4 -4 -1 0 -10 3 -10 3 -17 -2 -15 -5 1 -34 -23 -65
-54 -31 -31 -60 -54 -65 -50 -4 4 -4 2 -1 -4 8 -14 -16 -37 -27 -27 -4 4 -4
-1 0 -10 3 -10 3 -17 -2 -15 -5 1 -55 -44 -111 -100 -96 -96 -104 -102 -123
-89 -11 7 -17 16 -14 19 3 4 -4 9 -15 13 -12 3 -21 14 -21 22 0 9 -3 14 -6 10
-10 -10 -36 22 -28 34 4 7 3 9 -4 5 -6 -3 -17 1 -26 9 -14 15 -14 18 0 41 9
13 21 24 27 24 6 0 7 3 4 7 -4 3 5 16 18 29 14 13 25 28 25 33 0 5 8 16 19 23
10 7 30 31 45 52 14 21 26 35 26 30 0 -5 8 3 17 16 24 35 35 49 59 75 12 13
19 26 16 29 -3 3 2 6 11 6 10 0 17 7 17 15 0 9 7 18 15 21 8 4 15 10 15 16 0
5 11 19 25 32 14 13 25 27 25 31 0 4 14 21 30 37 17 15 30 32 30 36 0 13 38
41 46 34 4 -4 4 -1 0 5 -4 8 3 23 17 37 14 14 22 27 19 30 -3 3 2 6 12 6 9 0
15 4 11 9 -3 5 5 17 17 25 12 9 19 16 14 16 -4 0 5 13 21 28 15 16 39 44 53
62 14 18 33 42 43 53 9 11 17 25 17 30 0 6 3 7 7 4 3 -4 18 10 31 30 14 21 40
52 58 70 19 18 31 33 27 33 -3 0 6 11 21 25 14 13 26 29 26 34 0 5 10 17 22
25 12 9 19 16 15 16 -4 0 3 11 15 25 11 13 26 22 31 18 6 -3 7 -1 4 4 -4 6 7
24 23 42 17 17 30 35 30 40 0 6 10 17 22 25 12 9 19 16 15 16 -4 0 3 10 16 23
12 12 26 21 30 19 5 -1 6 2 3 7 -3 5 9 26 28 47 90 102 106 122 106 129 0 4
15 22 33 39 17 17 32 34 32 37 0 3 13 17 29 32 16 15 26 27 22 27 -4 0 5 12
21 28 15 15 31 26 35 25 4 -2 5 3 2 11 -3 8 5 21 18 30 12 9 19 16 15 16 -4 0
7 15 25 34 43 44 68 74 68 84 0 4 9 13 20 20 11 7 20 19 20 27 0 8 7 15 17 15
9 0 13 3 10 6 -4 4 3 15 15 25 11 11 18 19 15 19 -3 0 4 10 16 23 30 32 79 91
81 97 0 2 12 17 26 31 62 67 78 88 72 95 -4 4 1 4 11 1 11 -4 16 -3 11 4 -6
11 35 56 48 52 5 -2 8 1 8 5 0 4 10 8 23 8 12 1 38 4 57 7 19 3 58 9 85 12 28
4 64 9 80 12 17 3 44 7 60 9 32 4 93 12 135 18 14 2 48 7 75 10 28 3 61 8 75
11 14 3 45 7 69 10 25 3 54 7 65 10 12 2 44 7 71 10 78 9 118 15 144 21 13 3
45 7 70 10 24 2 46 6 48 8 2 2 16 3 31 2 23 -1 27 -5 27 -31z m-3472 -2548 c4
3 9 -2 13 -11 3 -9 10 -13 15 -10 5 3 9 -2 9 -10 0 -9 7 -16 15 -16 8 0 15 -7
15 -17 0 -9 3 -14 6 -11 6 7 54 -39 54 -52 0 -6 7 -10 15 -10 8 0 15 -6 15
-14 0 -7 10 -16 21 -19 14 -4 20 -11 16 -21 -4 -9 -3 -15 1 -14 15 3 42 -15
42 -28 0 -8 5 -14 11 -14 15 0 39 -26 32 -34 -4 -3 1 -6 10 -6 10 0 17 -7 17
-17 0 -9 3 -14 6 -11 7 8 51 -35 47 -44 -2 -5 3 -8 11 -8 9 0 16 -7 16 -16 0
-8 4 -13 9 -9 5 3 12 -4 16 -15 3 -11 10 -20 15 -20 13 0 59 -48 52 -54 -3 -3
2 -6 11 -6 10 0 17 -7 17 -17 0 -9 3 -14 6 -10 8 7 34 -17 34 -32 0 -6 5 -11
10 -11 6 0 19 -9 30 -20 11 -11 20 -24 20 -30 0 -5 7 -10 15 -10 8 0 15 -7 15
-15 0 -8 5 -15 11 -15 6 0 17 -7 25 -15 9 -8 12 -15 7 -15 -4 0 4 -8 20 -18
15 -10 24 -22 20 -25 -3 -4 1 -7 11 -7 9 0 14 -4 11 -10 -3 -5 -2 -10 4 -10
14 0 60 -47 53 -54 -3 -3 2 -6 11 -6 10 0 17 -7 17 -16 0 -8 4 -13 9 -9 5 3
12 -4 16 -15 3 -11 13 -20 21 -20 8 0 14 -9 14 -19 0 -11 5 -23 10 -26 8 -5 7
-11 -1 -21 -8 -10 -8 -14 -1 -14 14 0 3 -32 -15 -43 -7 -5 -11 -12 -8 -18 4
-5 -2 -9 -11 -9 -10 0 -14 -3 -11 -6 3 -4 -4 -15 -17 -25 -27 -21 -41 -25 -30
-8 4 7 1 10 -6 7 -15 -5 -50 25 -50 43 0 5 -4 7 -10 4 -5 -3 -10 2 -10 11 0
10 -3 15 -6 12 -7 -8 -51 35 -47 45 2 4 -3 7 -11 7 -14 0 -20 11 -17 32 0 4
-5 5 -13 2 -7 -3 -23 10 -37 30 -13 19 -27 32 -31 30 -5 -3 -12 5 -17 18 -6
13 -10 20 -10 16 -1 -11 -61 53 -61 65 0 6 -3 8 -6 5 -7 -8 -44 28 -44 43 0 5
-4 7 -10 4 -5 -3 -10 1 -10 10 0 9 -3 14 -7 12 -10 -4 -53 40 -45 47 3 3 -2 6
-11 6 -16 0 -22 12 -18 33 1 5 -3 6 -9 2 -11 -7 -80 61 -80 79 0 5 -3 7 -6 4
-7 -8 -42 25 -37 35 2 4 -3 7 -11 7 -14 0 -20 11 -17 32 0 4 -5 5 -13 2 -7 -3
-23 10 -37 30 -13 19 -27 32 -32 29 -5 -3 -11 4 -14 16 -3 12 -9 21 -13 21
-12 0 -110 98 -110 110 0 6 -4 8 -10 5 -5 -3 -10 2 -10 11 0 10 -3 15 -6 11
-6 -6 -69 55 -84 82 -5 10 -5 23 1 32 5 7 9 10 9 4 0 -5 7 1 15 15 8 14 14 21
15 16 0 -6 6 -2 13 8 15 20 77 37 93 24 6 -4 14 -5 17 -1z m-34 -819 c11 -11
12 -10 6 2 -8 13 -6 13 8 1 9 -7 14 -17 11 -22 -3 -5 -1 -9 5 -9 14 0 60 -47
53 -54 -3 -3 2 -6 10 -6 21 0 32 -31 16 -42 -7 -4 -10 -8 -5 -8 11 0 -32 -40
-44 -40 -5 0 -8 -3 -6 -7 3 -5 -1 -14 -9 -21 -8 -7 -14 -9 -15 -5 0 4 -4 -2
-9 -14 -5 -13 -17 -23 -26 -23 -10 0 -15 -3 -11 -6 8 -8 -16 -33 -25 -27 -5 2
-8 0 -8 -6 0 -12 -78 -91 -90 -91 -6 0 -9 -6 -7 -12 1 -7 -4 -12 -10 -10 -7 1
-13 -3 -13 -9 0 -17 -23 -35 -49 -36 -18 -2 -39 13 -76 52 -29 30 -52 61 -52
69 0 8 4 13 9 10 4 -3 8 0 8 5 0 15 37 51 44 44 3 -4 6 -1 6 6 0 15 57 71 72
71 6 0 9 3 5 6 -7 7 24 38 46 47 9 3 17 13 17 22 0 8 7 15 15 15 8 0 14 6 13
13 -2 6 3 11 10 10 6 -2 12 3 12 10 0 8 11 20 25 27 14 7 23 15 21 18 -5 5 16
31 25 32 3 0 11 -6 18 -12z m-699 -563 c22 -17 42 -37 45 -46 3 -9 17 -22 30
-29 14 -7 25 -16 25 -20 0 -11 149 -157 155 -152 5 5 9 -14 6 -30 0 -5 3 -8 9
-8 11 0 6 -51 -9 -78 -22 -40 -64 -50 -221 -48 l-149 1 -25 28 c-14 16 -27 33
-28 40 -7 55 -3 296 5 312 14 27 48 56 58 49 5 -3 9 -1 9 4 0 18 51 5 90 -23z"/>
</g>
</svg>
