<?xml version="1.0" standalone="no"?>
<!DOCTYPE svg PUBLIC "-//W3C//DTD SVG 20010904//EN"
 "http://www.w3.org/TR/2001/REC-SVG-20010904/DTD/svg10.dtd">
<svg version="1.0" xmlns="http://www.w3.org/2000/svg"
 width="512.000000pt" height="512.000000pt" viewBox="0 0 512.000000 512.000000"
 preserveAspectRatio="xMidYMid meet">
<metadata>
Created by potrace 1.14, written by Peter Selinger 2001-2017
</metadata>
<g transform="translate(0.000000,512.000000) scale(0.100000,-0.100000)"
fill="#000000" stroke="none">
<path d="M4625 4962 c-3 -3 -22 -7 -43 -8 -20 -1 -127 -16 -237 -33 -239 -37
-280 -42 -322 -43 -18 0 -33 -4 -33 -7 0 -4 -12 -8 -27 -9 -16 -1 -44 -3 -63
-6 -19 -2 -57 -7 -85 -11 -27 -3 -108 -15 -180 -26 -71 -11 -148 -22 -170 -24
-22 -2 -40 -5 -40 -6 0 -1 -16 -3 -35 -4 -19 -2 -35 -4 -35 -5 0 -2 -38 -11
-55 -12 -15 -1 -127 -111 -167 -165 -12 -16 -33 -41 -45 -54 -13 -14 -38 -44
-56 -67 -40 -49 -64 -78 -94 -112 -11 -14 -75 -91 -141 -172 -66 -82 -124
-148 -128 -148 -5 0 -9 -7 -9 -15 0 -8 -9 -20 -20 -27 -11 -7 -20 -16 -20 -21
0 -4 -10 -18 -22 -31 -13 -12 -36 -39 -53 -61 -28 -36 -56 -69 -88 -105 -7 -8
-53 -64 -102 -125 -88 -108 -102 -125 -145 -175 -12 -14 -34 -40 -48 -59 -15
-19 -40 -49 -57 -67 -16 -18 -39 -45 -50 -60 -11 -15 -28 -35 -37 -43 -10 -9
-18 -21 -18 -28 0 -7 -4 -13 -8 -13 -4 0 -62 -66 -127 -146 -120 -146 -174
-211 -207 -246 -10 -10 -17 -19 -15 -21 2 -3 -36 -46 -70 -79 -13 -12 -23 -26
-23 -31 0 -5 -10 -20 -22 -33 -13 -13 -34 -34 -48 -48 -23 -25 -29 -26 -100
-20 -99 7 -224 -16 -300 -57 -62 -33 -316 -277 -333 -320 -18 -44 -28 -169
-14 -169 5 0 5 -9 2 -20 -4 -12 -2 -20 5 -20 6 0 8 -4 5 -10 -3 -5 -2 -10 2
-10 5 0 15 -11 24 -25 8 -14 61 -72 118 -129 57 -58 102 -109 100 -115 -2 -5
-80 -89 -173 -185 -141 -147 -173 -175 -192 -172 -13 3 -24 1 -24 -3 0 -4 -15
-6 -32 -6 -18 1 -37 -1 -43 -4 -5 -3 -21 -7 -35 -9 -49 -6 -152 -65 -205 -117
-55 -55 -111 -154 -121 -215 -8 -46 -8 -478 -1 -509 4 -13 20 -53 37 -89 42
-90 118 -163 217 -209 l78 -37 255 0 255 -1 75 37 c42 20 97 55 123 78 49 43
115 148 119 191 2 13 6 26 10 29 7 5 19 86 21 138 1 16 54 73 178 192 97 94
181 170 186 170 4 0 53 -45 108 -100 55 -55 116 -112 136 -126 54 -37 138 -49
206 -29 23 7 44 11 46 9 2 -3 70 61 150 141 104 104 152 160 171 199 39 80 58
185 53 288 l-5 87 55 49 c30 28 57 50 59 50 3 1 28 20 56 44 28 24 61 52 75
63 13 11 37 32 53 47 16 16 31 28 34 28 6 0 46 32 75 61 9 8 79 67 156 130
171 139 172 140 195 159 9 8 37 31 60 50 24 19 53 45 65 58 12 12 25 22 28 22
3 0 17 10 30 22 13 13 43 39 66 58 24 19 48 40 55 45 6 6 58 49 116 96 152
123 150 121 182 152 16 15 32 27 36 27 4 0 15 8 23 18 9 9 35 33 59 52 23 19
49 41 56 48 8 7 14 11 14 8 0 -2 13 8 28 22 16 15 39 36 53 47 212 173 343
282 373 310 12 11 23 20 26 20 3 0 15 9 26 20 12 11 33 29 46 40 25 22 76 85
77 98 1 4 1 8 2 10 2 7 11 56 13 77 2 14 5 25 6 25 1 0 3 20 5 45 2 25 6 59
10 75 3 17 8 46 10 65 2 19 13 96 25 170 12 74 23 155 25 180 2 25 4 45 5 45
1 0 4 14 5 30 2 17 6 46 9 65 4 19 8 53 11 75 2 22 18 130 36 240 29 186 44
397 31 420 -4 6 -8 19 -9 30 -6 33 -82 99 -110 94 -4 -1 -10 0 -13 1 -10 5
-190 7 -195 2z m-142 -502 c-2 -14 -5 -38 -7 -55 -13 -86 -23 -151 -31 -210
-13 -98 -17 -132 -35 -245 -24 -158 -32 -217 -35 -255 -2 -16 -4 -30 -5 -30
-1 0 -4 -13 -6 -30 -2 -16 -5 -43 -8 -60 -2 -16 -4 -33 -5 -37 -1 -4 -44 -41
-96 -83 -52 -42 -95 -81 -95 -86 0 -6 -4 -8 -8 -5 -4 2 -30 -15 -56 -40 -27
-24 -50 -44 -53 -44 -2 0 -15 -10 -28 -22 -28 -28 -73 -66 -109 -93 -14 -11
-39 -31 -54 -45 -16 -14 -40 -34 -53 -45 -73 -59 -314 -259 -325 -268 -7 -7
-25 -22 -41 -34 -29 -22 -68 -55 -110 -93 -13 -11 -24 -19 -27 -18 -2 2 -12
-7 -22 -18 -11 -12 -84 -75 -164 -139 -80 -65 -152 -124 -160 -131 -56 -49
-77 -67 -103 -87 -56 -43 -79 -62 -108 -91 -16 -16 -29 -26 -29 -23 0 3 -24
-17 -52 -44 -29 -27 -56 -49 -60 -49 -4 0 -15 -8 -25 -18 -10 -11 -43 -39 -73
-63 -83 -67 -101 -82 -132 -109 -15 -14 -34 -30 -41 -36 -10 -8 -19 -9 -33 -1
-23 13 -53 48 -54 62 0 6 344 354 765 775 573 574 769 775 781 805 22 53 19
177 -4 219 -37 66 -96 96 -187 96 -125 0 -61 56 -890 -773 -418 -417 -770
-768 -783 -778 -22 -17 -24 -17 -42 1 -28 28 -52 68 -43 72 4 1 32 32 62 68
30 36 60 70 66 75 7 6 14 15 16 22 4 10 58 76 119 144 14 15 32 37 40 49 8 12
29 37 45 55 57 62 73 83 68 89 -4 3 -2 6 3 6 6 0 54 54 108 120 54 66 102 120
108 120 5 0 7 4 3 9 -3 5 6 18 20 29 14 11 25 25 25 30 0 6 10 18 22 26 12 9
19 16 14 16 -5 0 3 11 18 25 14 13 26 28 26 33 0 5 11 18 25 28 14 10 25 22
25 27 0 4 10 19 23 32 32 35 70 80 242 290 44 54 89 108 100 121 12 12 32 37
45 55 14 18 37 45 53 61 15 16 27 33 27 37 0 5 7 11 15 15 8 3 15 11 15 17 0
7 6 17 14 23 13 10 235 275 310 370 15 20 32 34 36 31 5 -3 11 -1 14 4 3 4 16
9 28 10 31 2 83 9 83 11 0 1 21 3 46 5 25 2 104 13 175 24 71 11 146 23 167
26 20 3 54 8 75 11 20 3 53 8 72 10 19 2 51 6 70 9 19 3 49 7 67 8 18 1 34 5
37 7 2 3 31 5 63 5 56 0 58 -1 56 -25z m-2737 -2711 c222 -222 404 -409 404
-415 0 -6 -11 -21 -24 -33 l-25 -23 -417 416 -417 417 24 23 c13 13 30 22 37
21 8 -1 196 -183 418 -406z m-389 -381 c13 -12 23 -25 23 -29 0 -10 -239 -249
-249 -249 -4 0 -18 11 -31 25 -23 25 -23 25 -4 46 38 43 227 229 232 229 3 0
16 -10 29 -22z m-578 -579 c72 -72 131 -135 131 -140 0 -5 -11 -21 -25 -34
-23 -24 -31 -25 -135 -25 -109 0 -112 1 -140 28 -27 27 -28 31 -28 141 0 106
1 115 23 137 13 13 28 24 34 24 5 0 68 -59 140 -131z"/>
</g>
</svg>
